<svg xmlns="http://www.w3.org/2000/svg" width="20" height="20" viewBox="0 0 20 20">
  <path d="M16.1510073,1.50364152 C13.8691672,-0.0929445285 12.2451332,-0.0582109669 11.6282894,0.0378852202 C11.4548021,0.0645142841 11.3090246,0.160610471 11.2066189,0.296071362 L5.64056749,7.67579542 L2.91416614,11.2915592 C2.58044401,11.7338332 2.38768033,12.2594678 2.357561,12.8047847 L2.00094819,19.3161697 C1.97564796,19.7850728 2.46117148,20.1243039 2.91657569,19.956425 L9.2488627,17.6292764 C9.78257714,17.4324529 10.2464148,17.0909062 10.5813417,16.6463166 L12.8029431,13.6997528 L18.8701801,5.65430213 C18.9774049,5.51189453 19.0207767,5.33822672 18.9906574,5.16455891 C18.8894564,4.5555638 18.4039329,3.07822965 16.1510073,1.50364152 Z M9.26813906,16.3279256 L6.80678778,17.2414183 C6.71040594,17.2773096 6.60318114,17.248365 6.54053294,17.1696356 C6.22367763,16.7817775 5.84658368,16.3973927 5.24540194,15.9771166 C4.6442202,15.5579983 4.14785372,15.3310724 3.66714928,15.1597202 C3.57076744,15.1249866 3.50932401,15.0369949 3.51534788,14.9374254 L3.66233019,12.4065065 L4.32375058,11.5323785 C4.32375058,11.5323785 5.80441662,11.3367128 7.73687255,12.6878484 C9.66691893,14.0378261 9.93076423,15.4526399 9.93076423,15.4526399 L9.26813906,16.3279256 Z"/>
</svg>
