<svg xmlns="http://www.w3.org/2000/svg" width="22" height="22" viewBox="0 0 22 22">
  <path d="M131.010258,116.042893 C133.745231,113.30792 138.179498,113.30792 140.914471,116.042893 C143.649445,118.777866 143.649445,123.212134 140.915518,125.946059 L140.915518,125.946059 L138.2561,128.614807 C138.205981,128.679012 138.148194,128.736941 138.084115,128.787214 L134.175518,132.706059 C133.987897,132.894236 133.733095,133 133.467365,133 L133.467365,133 L125.381365,132.999664 L122.674471,135.707107 C122.283947,136.097631 121.650782,136.097631 121.260258,135.707107 C120.899774,135.346623 120.872044,134.779392 121.177069,134.387101 L121.260258,134.292893 L123.966365,131.585664 L123.967365,123.5 C123.967365,123.278986 124.040529,123.065516 124.173445,122.891971 L124.260258,122.792893 Z M135.044365,128.999664 L129.381365,128.999664 L127.381365,130.999664 L133.050365,131 L135.044365,128.999664 Z M139.500258,117.457107 C137.546333,115.503182 134.378396,115.503182 132.424471,117.457107 L132.424471,117.457107 L125.967365,123.914 L125.966365,129.585664 L135.260258,120.292893 C135.650782,119.902369 136.283947,119.902369 136.674471,120.292893 C137.034955,120.653377 137.062685,121.220608 136.75766,121.6129 L136.674471,121.707107 L131.381365,126.999664 L137.038365,126.999664 L139.500258,124.532893 C141.337557,122.695594 141.447221,119.784881 139.829251,117.819442 L139.672505,117.638013 Z" transform="translate(-121 -114)"/>
</svg>
