<svg xmlns="http://www.w3.org/2000/svg" width="21" height="21" viewBox="0 0 21 21">
  <path d="M1001,1344.5 C1001,1347.53669 998.535313,1350 995.5,1350 C992.459875,1350 990,1347.53669 990,1344.5 C990,1341.46331 992.459875,1339 995.5,1339 C998.535313,1339 1001,1341.46331 1001,1344.5 Z M995.5,1336.484 C994.633125,1336.484 993.81625,1336.69175 993.035,1337 L993,1337 L995.5,1334 L998,1337 L997.96125,1337 C997.181875,1336.691 996.365,1336.484 995.5,1336.484 Z M995.5,1352.516 C996.365,1352.516 997.181875,1352.30825 997.96125,1352 L998,1352 L995.5,1355 L993,1352 L993.035,1352 C993.81625,1352.309 994.633125,1352.516 995.5,1352.516 Z M1003.516,1344.5 C1003.516,1343.63562 1003.3045,1342.81562 1003,1342.03625 L1003,1342 L1006,1344.5 L1003,1347 L1003,1346.96375 C1003.30525,1346.18438 1003.516,1345.36438 1003.516,1344.5 Z M987.484,1344.5 C987.484,1345.36438 987.69025,1346.18438 988,1346.96375 L988,1347 L985,1344.5 L988,1342 L988,1342.03625 C987.6895,1342.81562 987.484,1343.63562 987.484,1344.5 Z M1001.34229,1350.34229 C1002.03819,1349.65134 1002.55304,1348.85785 1002.96959,1348.0297 L1003,1348 L1003,1352 L999,1352 L999.028289,1351.97242 C999.856436,1351.55233 1000.65205,1351.03819 1001.34229,1350.34229 Z M989.657001,1338.65771 C988.961103,1339.34866 988.447666,1340.14215 988.028289,1340.9703 L988,1341 L988,1337 L992,1337 L991.966761,1337.02758 C991.137907,1337.44767 990.348656,1337.96181 989.657001,1338.65771 Z M989.657709,1350.343 C990.349364,1351.0389 991.138614,1351.55304 991.966761,1351.97242 L992,1352 L988,1352 L988,1348 L988.028289,1348.0297 C988.448373,1348.85856 988.96181,1349.65205 989.657709,1350.343 Z M1001.34229,1338.657 C1000.65205,1337.9611 999.856436,1337.44696 999.028289,1337.02758 L999,1337 L1003,1337 L1003,1341 L1002.96959,1340.9703 C1002.55304,1340.14144 1002.03819,1339.34795 1001.34229,1338.657 Z" transform="translate(-985 -1334)"/>
</svg>
