<svg xmlns="http://www.w3.org/2000/svg" width="22" height="22" viewBox="0 0 22 22">
  <path d="M330.992343,115 C337.067475,115 341.992343,119.924868 341.992343,126 C341.992343,132.075132 337.067475,137 330.992343,137 C324.917211,137 319.992343,132.075132 319.992343,126 C319.992343,119.924868 324.917211,115 330.992343,115 Z M330.992343,117 C326.02178,117 321.992343,121.029437 321.992343,126 C321.992343,130.970563 326.02178,135 330.992343,135 C335.962906,135 339.992343,130.970563 339.992343,126 C339.992343,121.029437 335.962906,117 330.992343,117 Z M330.992343,121 C331.505179,121 331.92785,121.38604 331.985615,121.883379 L331.992343,122 L331.992343,127.585 L334.285236,125.292893 C334.64572,124.932409 335.212951,124.90468 335.605242,125.209705 L335.69945,125.292893 C336.059934,125.653377 336.087663,126.220608 335.782638,126.612899 L335.69945,126.707107 L331.69945,130.707107 C331.670983,130.735573 331.640809,130.762331 331.609093,130.787214 L331.69945,130.707107 C331.664056,130.742501 331.626668,130.774687 331.587649,130.803665 C331.563474,130.82151 331.538618,130.838281 331.513003,130.853933 C331.500956,130.861393 331.488737,130.868501 331.476405,130.875329 C331.456637,130.886206 331.436234,130.896623 331.415442,130.906346 C331.398441,130.914321 331.381138,130.921804 331.363679,130.928775 C331.343922,130.936684 331.32414,130.943878 331.304079,130.950453 C331.289194,130.955271 331.273806,130.959902 331.258336,130.964155 C331.236779,130.970166 331.215089,130.97536 331.193137,130.979835 C331.175718,130.983298 331.158292,130.986372 331.14081,130.988982 C331.120457,130.992094 331.0994,130.994564 331.078154,130.99637 C331.060266,130.997855 331.042934,130.998877 331.02559,130.999451 C331.014745,130.999815 331.003565,131 330.992343,131 L330.960088,130.999483 C330.942076,130.998905 330.924077,130.997844 330.906112,130.996298 L330.992343,131 C330.941723,131 330.891981,130.996239 330.843382,130.988981 C330.826394,130.986372 330.808968,130.983298 330.791617,130.97976 C330.769597,130.97536 330.747906,130.970166 330.726503,130.964279 C330.71088,130.959902 330.695491,130.955271 330.6802,130.950262 C330.660545,130.943878 330.640764,130.936684 330.621284,130.928896 C330.603547,130.921804 330.586244,130.914321 330.569121,130.906327 C330.548451,130.896623 330.528049,130.886206 330.508066,130.875124 C330.495948,130.868501 330.48373,130.861393 330.471634,130.854005 C330.446068,130.838281 330.421212,130.82151 330.397184,130.803686 C330.391134,130.799282 330.385269,130.794825 330.379443,130.790295 C330.343877,130.762331 330.313702,130.735573 330.285236,130.707107 L326.285236,126.707107 C325.894712,126.316582 325.894712,125.683418 326.285236,125.292893 C326.64572,124.932409 327.212951,124.90468 327.605242,125.209705 L327.69945,125.292893 L329.992343,127.585 L329.992343,122 C329.992343,121.447715 330.440058,121 330.992343,121 Z" transform="translate(-320 -115)"/>
</svg>
