<svg xmlns="http://www.w3.org/2000/svg" width="20" height="20" viewBox="0 0 20 20">
  <path d="M10,20 C15.5230769,20 20,15.5230769 20,10 C20,4.47846154 15.5230769,0 10,0 C4.47692308,0 0,4.47846154 0,10 C0,15.5230769 4.47692308,20 10,20 Z M6.22106755,11.2861633 C6.51582428,10.9797128 6.99499291,10.9797128 7.28974965,11.2861633 L9.24421351,13.3181656 L9.24421351,5.78577041 C9.24421351,5.35202514 9.58280586,5 10,5 C10.4171941,5 10.7557865,5.35202514 10.7557865,5.78577041 L10.7557865,13.3181656 L12.7102504,11.2861633 C13.0050071,10.9797128 13.4841757,10.9797128 13.7789325,11.2861633 C14.0736892,11.5926138 14.0736892,12.0907922 13.7789325,12.3972427 L10.5350968,15.7713408 C10.2403401,16.0762197 9.76117147,16.0762197 9.46641474,15.7713408 L6.22106755,12.3972427 C5.92631082,12.0907922 5.92631082,11.5926138 6.22106755,11.2861633 Z"/>
</svg>
