<svg xmlns="http://www.w3.org/2000/svg" width="23" height="23" viewBox="0 0 23 23">
  <path d="M233.25188,114.485071 C239.263201,114.485071 244.212675,119.263381 244.489658,125.20936 C244.494965,125.227727 244.498646,125.246912 244.50188,125.266321 C244.52197,125.366767 244.520535,125.467213 244.500343,125.56397 L244.50188,125.735071 L244.50188,125.735071 C244.50188,129.171893 242.939997,132.26163 240.490984,134.329526 C240.485113,134.340224 240.478001,134.350244 240.47063,134.360071 C240.381586,134.449115 240.271398,134.538159 240.150107,134.607121 C238.241483,136.095557 235.845516,136.985071 233.25188,136.985071 C230.704326,136.985071 228.347479,136.126884 226.456158,134.685329 C226.294744,134.632044 226.146731,134.530471 226.03313,134.360071 L226.012777,134.329526 C223.563764,132.26163 222.00188,129.171893 222.00188,125.735071 C222.00188,122.295902 223.565898,119.204293 226.017795,117.136381 C226.02226,117.128463 226.027624,117.119249 226.03313,117.110071 C226.117741,116.997256 226.236291,116.909896 226.370911,116.850543 C228.27647,115.369324 230.665925,114.485071 233.25188,114.485071 Z M231.338768,126.634634 L231.335162,126.691427 C231.115147,129.44217 230.033883,131.917169 228.304919,133.689322 C229.742548,134.588737 231.439288,135.110071 233.25188,135.110071 C235.056089,135.110071 236.745514,134.593548 238.179585,133.701075 C236.438192,131.961851 235.358548,129.457307 235.160094,126.672628 L234.18938,126.672571 C233.149243,126.672571 232.211685,126.672571 231.338768,126.634634 Z M223.881266,126.027401 L223.89232,126.274229 C224.033622,128.735479 225.135768,130.950259 226.826995,132.546804 C228.349865,131.12795 229.297261,128.929089 229.47238,126.541853 C227.283306,126.439587 225.462288,126.240334 223.881266,126.027401 Z M242.604577,126.382761 L242.395358,126.398716 C240.736748,126.525221 238.920461,126.635127 237.04204,126.66474 C237.238926,129.003736 238.179815,131.152101 239.676254,132.546485 C241.343097,130.973761 242.437563,128.800551 242.604577,126.382761 Z M233.25188,116.360071 C231.436329,116.360071 229.737009,116.883108 228.297158,117.785944 C228.85492,118.357121 229.358312,119.00681 229.78313,119.735071 C230.666317,121.180285 231.205694,122.900547 231.342371,124.719188 C232.213102,124.746359 233.15003,124.797571 234.18938,124.797571 L235.160009,124.796986 C235.294401,122.910401 235.834439,121.172015 236.72063,119.641321 C237.151434,118.964344 237.622639,118.327767 238.160766,117.758114 C236.731459,116.872305 235.048585,116.360071 233.25188,116.360071 Z M239.638677,118.887578 L239.474103,119.044098 C239.022714,119.495487 238.62688,120.016321 238.31438,120.578821 C237.614007,121.823929 237.172016,123.262825 237.042026,124.788269 C238.967548,124.756603 240.826416,124.634225 242.545112,124.497995 C242.25177,122.299079 241.189023,120.33509 239.638677,118.887578 Z M226.819435,118.930434 L226.720812,119.025142 C225.32997,120.379446 224.355043,122.159057 224.012256,124.147751 C225.538279,124.360167 227.37844,124.559186 229.448765,124.662563 C229.305178,123.2102 228.868887,121.880582 228.18938,120.672571 C227.781923,119.993475 227.325275,119.412763 226.819435,118.930434 Z" transform="translate(-222 -114)"/>
</svg>
