<svg xmlns="http://www.w3.org/2000/svg" width="20" height="20" viewBox="0 0 20 20">
  <path d="M11.4194452,7.82956522 C13.7136001,6.84173913 15.8459375,5.43304348 17.7433784,3.66434783 C19.2319256,5.47913043 20.0671129,7.77130435 19.9957739,10.2634783 C18.9900693,10.1408696 17.6085305,10.0278261 16.6967844,10.0278261 C15.2943659,10.0278261 13.9206569,10.1652174 12.5800075,10.4269565 C12.2494125,9.53652174 11.8657484,8.66869565 11.4194452,7.82956522 Z M16.6967844,10.8973913 C17.5641612,10.8973913 18.9543999,11.0104348 19.9409648,11.1330435 C19.5277211,14.7921739 17.1430876,17.853913 13.8693277,19.2252174 C13.8971673,18.7017391 13.9197869,18.1391304 13.9197869,17.826087 C13.9197869,15.5686957 13.5561325,13.3565217 12.872323,11.2582609 C14.1190139,11.0234783 15.3952844,10.8973913 16.6967844,10.8973913 Z M0.122668122,8.51478261 C0.569841278,5.51565217 2.3454841,2.95652174 4.83712596,1.44782609 C7.00774274,3.10086957 8.81818503,5.11652174 10.1701443,7.39478261 C7.90295904,8.24608696 5.49918583,8.69565217 3.04495339,8.69565217 C2.29937481,8.69565217 1.14403249,8.62869565 0.122668122,8.51478261 Z M12.9802013,19.5504348 C12.0406157,19.8426087 11.041001,20 10.0048469,20 C7.01731259,20 4.34384351,18.6843478 2.51078157,16.6104348 C5.3182286,14.0095652 8.53456937,12.2591304 12.0153861,11.4408696 C12.6887558,13.48 13.0498003,15.6304348 13.0498003,17.826087 C13.0498003,18.1921739 13.0150008,18.9547826 12.9802013,19.5504348 Z M11.7248105,10.6147826 C8.15003526,11.4704348 4.8475658,13.2704348 1.96268996,15.9313043 C0.735138748,14.2704348 1.77635684e-15,12.2234783 1.77635684e-15,10 C1.77635684e-15,9.78956522 0.0182697204,9.58434783 0.0313195206,9.37652174 C1.08661337,9.49478261 2.25761545,9.56521739 3.04495339,9.56521739 C5.65317347,9.56521739 8.20484442,9.07826087 10.6077476,8.15913043 C11.0340411,8.95217391 11.4063954,9.77304348 11.7248105,10.6147826 Z M5.67579313,0.995652174 C6.98773305,0.364347826 8.45192064,-1.77635684e-15 10.0048469,-1.77635684e-15 C12.8114239,-1.77635684e-15 15.3439551,1.15826087 17.1604873,3.01826087 C15.3100257,4.74608696 13.2272775,6.1173913 10.9861918,7.07043478 C9.63423254,4.76 7.83510008,2.70173913 5.67579313,0.995652174 Z"/>
</svg>
