<svg xmlns="http://www.w3.org/2000/svg" width="23" height="20" viewBox="0 0 23 20">
  <path d="M98.3110976,116.476031 C99.706759,116.476031 101.061098,117.805745 101.061098,119.176031 L101.061098,119.176031 L101.061098,132.776031 C101.061098,134.146317 99.706759,135.476031 98.3110976,135.476031 L98.3110976,135.476031 L81.8110976,135.476031 C80.4154362,135.476031 79.0610976,134.146317 79.0610976,132.776031 L79.0610976,132.776031 L79.0610976,119.176031 C79.0610976,117.805745 80.4154362,116.476031 81.8110976,116.476031 L81.8110976,116.476031 Z M99.0600976,119.792031 L90.7105477,128.200828 C90.3742166,128.539539 89.8449905,128.565594 89.4789832,128.278992 L89.3910879,128.200828 L81.0600976,119.810031 L81.0610976,132.601031 C81.0610976,133.001905 81.4464755,133.408266 81.8579053,133.468411 L81.9610976,133.476031 L98.1610976,133.476031 C98.6088138,133.476031 99.0610976,133.035311 99.0610976,132.601031 L99.0610976,132.601031 L99.0600976,119.792031 Z M97.7280976,118.475031 L82.3720976,118.475031 L90.0508178,126.206896 L97.7280976,118.475031 Z" transform="translate(-79 -116)"/>
</svg>
