<svg xmlns="http://www.w3.org/2000/svg" width="20" height="20" viewBox="0 0 20 20">
  <path d="M0.637778603,5.39316667 C1.18000075,5.677 8.69111085,9.61166667 8.97111081,9.75791667 C9.25111077,9.90416667 9.61333295,9.9735 9.97777734,9.9735 C10.3422217,9.9735 10.7044439,9.90416667 10.9844439,9.75791667 C11.2644438,9.61166667 18.7755539,5.677 19.3177761,5.39316667 C19.8611093,5.10825 20.4735107,3.4354248 19.3777761,3 L0.578889722,3 C-0.346679687,3.58984375 0.0955564542,5.10825 0.637778603,5.39316667 Z M19.5699983,7.77975 C18.9533317,8.09283333 11.3622216,11.9495 10.9844439,12.1423333 C10.6066661,12.3351667 10.3422217,12.3579167 9.97777734,12.3579167 C9.61333295,12.3579167 9.34888854,12.3351667 8.97111081,12.1423333 C8.59333309,11.9495 1.04555633,8.09175 0.428889743,7.77866667 C-0.00444353233,7.55766667 9.11517064e-07,7.81658333 9.11517064e-07,8.01591667 C9.11517064e-07,8.21525 9.11517077e-07,16.9166667 9.11517077e-07,16.9166667 C9.11517077e-07,17.3716667 0.628889716,18 1.11111187,18 L18.8888873,18 C19.3711094,18 19.9999982,17.3716667 19.9999982,16.9166667 C19.9999982,16.9166667 19.9999982,8.21633333 19.9999982,8.017 C19.9999982,7.81766667 20.0044427,7.55875 19.5699983,7.77975 Z"/>
</svg>
