<svg xmlns="http://www.w3.org/2000/svg" width="20" height="20" viewBox="0 0 20 20">
  <path d="M13.4592813,11.5103846 C12.6786865,11.5103846 12.0459481,12.4415385 12.0459481,13.5861538 C12.0459481,14.7330769 12.6786865,15.6642308 13.4592813,15.6642308 C14.2398762,15.6642308 14.8726146,14.7330769 14.8726146,13.5861538 C14.8715274,12.4415385 14.2398762,11.5103846 13.4592813,11.5103846 Z M18.3798554,6.10692308 C18.5418452,5.68576923 18.5483682,3.29269231 17.6894965,1 C17.6894965,1 15.7206145,1.22961538 12.7417429,3.4 C12.1166147,3.21538462 11.0587891,3.12538462 10.0031379,3.12538462 C8.94531234,3.12538462 7.88857393,3.21538462 7.26344576,3.4 C4.28348695,1.22961538 2.314605,1 2.314605,1 C1.45682043,3.29269231 1.46551787,5.68576923 1.62533325,6.10692308 C0.616430736,7.27 0,8.66730769 0,10.5734615 C0,18.865 6.48285093,18.9976923 8.11796879,18.9976923 C8.48978416,18.9976923 9.22471745,19 10.0031379,19 C10.7804712,19 11.5164917,18.9976923 11.8861327,18.9976923 C13.5234249,18.9976923 20.0041015,18.865 20.0041015,10.5734615 C20.0041015,8.66730769 19.3887579,7.27 18.3798554,6.10692308 Z M10.0324918,17.9788462 L9.97160972,17.9788462 C5.87185609,17.9788462 2.67772293,17.4607692 2.67772293,13.2307692 C2.67772293,12.2165385 3.01474856,11.2773077 3.81599979,10.4973077 C5.14996895,9.19692308 7.40912781,9.88461538 9.97160972,9.88461538 C9.98248151,9.88461538 9.99335331,9.88461538 10.0031379,9.88461538 C10.0140097,9.88461538 10.0227072,9.88461538 10.0324918,9.88461538 C12.5949737,9.88461538 14.8552197,9.19692308 16.190276,10.4973077 C16.9893529,11.2773077 17.3263786,12.2165385 17.3263786,13.2307692 C17.3263786,17.4607692 14.1333326,17.9788462 10.0324918,17.9788462 Z M6.54590734,11.5103846 C5.76531251,11.5103846 5.13257408,12.4415385 5.13257408,13.5861538 C5.13257408,14.7330769 5.76531251,15.6642308 6.54590734,15.6642308 C7.32758935,15.6642308 7.96032778,14.7330769 7.96032778,13.5861538 C7.96032778,12.4415385 7.32758935,11.5103846 6.54590734,11.5103846 Z"/>
</svg>
