<svg xmlns="http://www.w3.org/2000/svg" width="22" height="23" viewBox="0 0 22 23">
  <path d="M425.037385,116.299765 L425.200972,116.402 L425.635885,116.306915 C427.54074,115.916517 429.505203,115.916517 431.410059,116.306915 L431.843972,116.402 L432.008558,116.299765 C433.772427,115.209825 435.096204,114.864637 436.007895,114.996975 C436.090214,115.008924 436.160063,115.024296 436.217337,115.041284 C436.502357,115.125824 436.734985,115.332798 436.852104,115.606051 C437.351735,116.771753 437.470891,118.057439 437.205271,119.282997 L437.142972,119.538 L437.302786,119.749076 C438.035158,120.762556 438.459294,121.971545 438.516348,123.22902 L438.522972,123.52 C438.522972,128.044882 436.556073,130.321851 433.011154,131.197888 L432.730972,131.262 L432.815245,131.48905 C432.968881,131.946381 433.044438,132.423343 433.034877,132.894829 L433.022972,133.13 L433.022972,137 C433.022972,137.552285 432.575256,138 432.022972,138 C431.510136,138 431.087464,137.61396 431.029699,137.116621 L431.022972,137 L431.026052,133.051575 C431.074566,132.434874 430.879975,131.826263 430.488339,131.353636 L430.364983,131.216055 C429.786459,130.619301 430.146161,129.618229 430.972193,129.526155 C434.74103,129.106062 436.522972,127.607694 436.522972,123.520184 C436.522762,122.38066 436.084433,121.284839 435.298707,120.459522 C435.034834,120.182353 434.952284,119.778895 435.086088,119.420359 C435.367583,118.666076 435.417233,117.850677 435.237484,117.076644 L435.223972,117.027 L435.129657,117.05066 L434.994587,117.087317 C434.350216,117.272813 433.54717,117.662171 432.579776,118.310643 C432.339313,118.471833 432.040798,118.520907 431.761387,118.445181 C429.640696,117.870428 427.405247,117.870428 425.284556,118.445181 C425.005146,118.520907 424.70663,118.471833 424.466167,118.310643 C423.586718,117.721123 422.843094,117.345747 422.231032,117.143002 L421.98218,117.067972 L421.820972,117.027 L421.808459,117.076644 C421.646685,117.773274 421.670724,118.50341 421.88236,119.192343 L421.959855,119.420359 C422.093662,119.778902 422.011106,120.182368 421.747222,120.459537 C420.955643,121.290967 420.51684,122.396707 420.522895,123.55 C420.522895,127.599183 422.291489,129.086304 426.086228,129.557625 C426.86589,129.654462 427.22082,130.560038 426.757292,131.158148 L426.681576,131.245419 C426.256177,131.685 426.018877,132.270131 426.016568,132.929901 L426.022972,133.13 L426.022972,137 C426.022972,137.552285 425.575256,138 425.022972,138 C424.510136,138 424.087464,137.61396 424.029699,137.116621 L424.022972,137 L424.02302,135.261732 C421.89471,135.608814 420.512585,134.955979 419.241039,133.461468 L418.969923,133.128889 C418.849132,132.976617 418.682814,132.765961 418.633377,132.704871 C418.281474,132.270019 418.058726,132.069423 417.849745,131.991665 L417.780436,131.970141 C417.244641,131.836194 416.91888,131.293259 417.052829,130.757464 C417.186778,130.221669 417.729712,129.895909 418.265507,130.029857 C418.966751,130.205168 419.457529,130.581934 420.029771,131.255579 L420.188076,131.446733 C420.268108,131.54563 420.567215,131.925333 420.638557,132.013668 C421.587702,133.188893 422.376084,133.593291 424.025429,133.229355 L424.025436,133.200159 C423.985642,132.634369 424.056651,132.073039 424.227901,131.545153 L424.322972,131.278 L424.269147,131.266986 C420.645092,130.418445 418.614378,128.243644 418.525926,123.857737 L418.522908,123.555261 C418.515694,122.184008 418.946056,120.854343 419.739425,119.754217 L419.901972,119.538 L419.840672,119.282997 C419.595485,118.151712 419.678153,116.969195 420.085296,115.877107 L420.193839,115.606051 C420.310958,115.332798 420.543586,115.125824 420.828607,115.041284 C420.88588,115.024296 420.955729,115.008924 421.038048,114.996975 C421.949739,114.864637 423.273516,115.209825 425.037385,116.299765 Z" transform="translate(-417 -115)"/>
</svg>
