<svg xmlns="http://www.w3.org/2000/svg" width="21" height="20" viewBox="0 0 21 20">
  <path d="M189.992343,158 C191.649197,158 192.992343,159.343146 192.992343,161 L192.992343,161 L192.992343,175 C192.992343,176.656854 191.649197,178 189.992343,178 L189.992343,178 L175.992343,178 C175.972618,178 175.952938,177.99981 175.933305,177.999431 L175.933311,177.998267 L175.81607,177.994907 C174.241263,177.903661 172.992343,176.597681 172.992343,175 L172.992343,175 L172.992343,161 C172.992343,159.343146 174.335489,158 175.992343,158 L175.992343,158 Z M186.992343,167.415 L178.406343,176 L189.992343,176 C190.505179,176 190.92785,175.61396 190.985615,175.116621 L190.992343,175 L190.992343,171.415 L186.992343,167.415 Z M189.992343,160 L175.992343,160 C175.440058,160 174.992343,160.447715 174.992343,161 L174.992343,161 L174.992343,175 C174.992343,175.42891 175.262371,175.794752 175.641699,175.936799 L186.285236,165.292893 C186.64572,164.932409 187.212951,164.90468 187.605242,165.209705 L187.69945,165.292893 L190.992343,168.585 L190.992343,161 C190.992343,160.487164 190.606303,160.064493 190.108964,160.006728 L189.992343,160 Z M179.492343,162 C180.873055,162 181.992343,163.119288 181.992343,164.5 C181.992343,165.880712 180.873055,167 179.492343,167 C178.111631,167 176.992343,165.880712 176.992343,164.5 C176.992343,163.119288 178.111631,162 179.492343,162 Z M179.492343,164 C179.2162,164 178.992343,164.223858 178.992343,164.5 C178.992343,164.776142 179.2162,165 179.492343,165 C179.768485,165 179.992343,164.776142 179.992343,164.5 C179.992343,164.223858 179.768485,164 179.492343,164 Z" transform="translate(-172 -158)"/>
</svg>
