<svg xmlns="http://www.w3.org/2000/svg" width="22" height="22" viewBox="0 0 22 22">
  <path d="M380.007657,116 C386.082789,116 391.007657,120.924868 391.007657,127 C391.007657,133.075132 386.082789,138 380.007657,138 C373.932525,138 369.007657,133.075132 369.007657,127 C369.007657,120.924868 373.932525,116 380.007657,116 Z M380.007657,118 C375.037094,118 371.007657,122.029437 371.007657,127 C371.007657,131.970563 375.037094,136 380.007657,136 C384.97822,136 389.007657,131.970563 389.007657,127 C389.007657,122.029437 384.97822,118 380.007657,118 Z M380.007657,126 C380.520493,126 380.943164,126.38604 381.000929,126.883379 L381.007657,127 L381.007657,131 C381.007657,131.552285 380.559942,132 380.007657,132 C379.494821,132 379.07215,131.61396 379.014385,131.116621 L379.007657,131 L379.007657,127 C379.007657,126.447715 379.455372,126 380.007657,126 Z M380.017657,122 C380.569942,122 381.017657,122.447715 381.017657,123 C381.017657,123.512836 380.631617,123.935507 380.134278,123.993272 L380.007657,124 C379.455372,124 379.007657,123.552285 379.007657,123 C379.007657,122.487164 379.393697,122.064493 379.891036,122.006728 L380.017657,122 Z" transform="translate(-369 -116)"/>
</svg>
