<svg xmlns="http://www.w3.org/2000/svg" width="20" height="20" viewBox="0 0 20 20">
  <path fill-rule="evenodd" d="M10,20 C4.4771525,20 0,15.5228475 0,10 C0,4.4771525 4.4771525,0 10,0 C15.5228475,0 20,4.4771525 20,10 C20,15.5228475 15.5228475,20 10,20 Z M12,5.5 C12,5.28888783 11.9601068,5.09166758 11.8803191,4.90833333 C11.8005315,4.72499908 11.6941496,4.56666733 11.5611702,4.43333333 C11.4281908,4.29999933 11.268618,4.19444483 11.0824468,4.11666667 C10.8962757,4.0388885 10.7021287,4 10.5,4 C10.287233,4 10.0904264,4.04166625 9.90957447,4.125 C9.7287225,4.20833375 9.56914963,4.316666 9.43085106,4.45 C9.2925525,4.583334 9.18617059,4.74166575 9.11170213,4.925 C9.03723367,5.10833425 9,5.299999 9,5.5 C9,5.91111317 9.14361559,6.26388742 9.43085106,6.55833333 C9.71808654,6.85277925 10.074466,7 10.5,7 C10.7021287,7 10.8962757,6.9611115 11.0824468,6.88333333 C11.268618,6.80555517 11.4281908,6.70000067 11.5611702,6.56666667 C11.6941496,6.43333267 11.8005315,6.27500092 11.8803191,6.09166667 C11.9601068,5.90833242 12,5.71111217 12,5.5 Z M9,16 L12,16 L12,8 L9,8 L9,16 Z"/>
</svg>
