<svg xmlns="http://www.w3.org/2000/svg" width="21" height="22" viewBox="0 0 21 22">
  <path d="M225.361623,174.153846 C225.10724,173.73336 224.881168,173.227 224.797521,173.025641 L224.515469,172.461538 L223.951367,173.025641 L223.387264,173.871795 L223.387264,172.461538 C223.326921,170.863988 223.468216,169.11986 223.669316,167.948718 C224.400764,165.125244 226.435415,162.621576 229.02829,161.179487 L229.592392,160.897436 L229.592392,160.615385 C229.430872,160.371088 229.346095,159.89286 229.310341,159.487179 L229.310341,158.923077 L228.746239,158.923077 C227.763589,158.852009 227.283186,158.598829 227.053931,158.076923 C226.802782,157.614241 226.802782,157.557978 226.77188,156.666667 C226.915818,155.476277 227.000595,155.223097 227.335982,154.692308 C227.820107,154.322902 228.130957,154.238509 229.310341,154.410256 C230.08083,154.351033 230.250384,154.379164 230.720598,154.410256 C230.843824,154.660475 231.041637,154.773 231.002649,154.692308 C231.098155,154.773 231.352486,154.463557 231.566751,154.128205 L232.130854,153.282051 L232.412905,153.564103 C232.737179,153.591493 232.963251,153.732149 232.977008,153.846154 L233.259059,153.846154 L232.977008,154.410256 C233.019769,154.547951 232.906733,154.941786 232.977008,155.25641 L232.694957,155.538462 L233.259059,155.538462 C235.02616,155.757588 236.326076,156.798439 236.925726,158.358974 C236.947775,158.88014 236.947775,159.864728 236.925726,160.333333 C236.665184,160.793055 236.665184,160.821186 236.643674,160.897436 C236.976034,160.821186 238.304208,161.468201 238.900085,161.74359 C239.886714,162.480921 241.101852,163.662427 241.720598,164.564103 C243.051725,166.55993 243.588647,168.6135 243.412905,170.769231 C243.249539,172.214281 242.995207,173.283263 242.566751,174.435897 L242.2847,174.717949 L241.720598,174.717949 L240.874444,174.717949 L241.438546,174.153846 C241.667033,173.311394 241.949623,172.298674 242.002649,171.333333 C242.175695,170.779595 242.203954,169.091729 242.002649,168.794872 L242.002649,168.512821 L241.720598,169.076923 C240.791003,169.963793 239.462828,170.245104 237.77188,169.641026 C236.156522,169.37304 235.534823,169.288647 234.105213,169.358974 C232.99151,169.288647 232.624143,169.316778 232.130854,169.358974 C230.391679,169.823137 229.233059,170.357628 227.618033,171.615385 C227.028854,171.93297 226.548451,172.270543 226.489828,172.179487 C226.491933,172.270543 226.57671,171.989232 226.77188,171.615385 C226.802782,171.257824 227.000595,170.66707 227.053931,170.205128 L227.335982,169.641026 L227.053931,169.923077 C226.944077,169.963793 226.548451,170.357628 226.207777,170.769231 L225.643674,171.333333 L225.643674,171.897436 C225.926752,172.608116 226.322379,173.48018 226.77188,174.153846 C226.915818,174.408507 227.057113,174.633555 227.053931,174.717949 C227.057113,174.689818 226.718005,174.689818 226.207777,174.717949 L225.643674,174.717949 L225.361623,174.153846 L225.361623,174.153846 Z M227.900085,167.384615 C229.171588,165.901252 230.265105,164.75477 230.156495,164.846154 C230.321183,164.782733 230.180988,165.202178 230.156495,165.692308 C229.11551,168.585697 228.919238,169.144957 229.02829,169.076923 C228.947277,169.17292 229.283743,169.061068 229.592392,168.794872 C232.031555,167.886623 234.807405,167.746808 237.77188,168.512821 C239.069317,168.865327 239.574017,168.865327 240.310341,168.512821 C240.583417,168.334031 240.723612,168.222179 240.874444,167.948718 C241.200273,167.467179 241.228312,166.796067 241.156495,166.25641 C240.555378,164.838659 238.704811,163.104955 236.925726,162.307692 C236.069156,161.958473 236.013078,161.958473 235.797521,162.025641 L235.515469,162.307692 L236.361623,163.153846 C236.770128,163.692178 237.190711,164.223474 237.207777,164.282051 C237.415022,164.698845 237.443061,165.230141 237.207777,165.692308 C237.050517,166.041067 236.377583,166.376623 235.797521,166.25641 C235.620533,166.208845 235.536417,166.236808 235.233418,166.538462 C234.69525,166.851993 234.022316,166.740141 233.54111,165.974359 C233.012916,165.565697 232.900761,165.31403 232.977008,164.846154 C232.872722,164.55903 232.788605,164.251437 232.694957,164 C232.648411,163.971807 232.620372,163.776067 232.694957,163.435897 L232.694957,163.153846 L232.412905,163.153846 C231.779205,162.909214 231.190388,162.629585 230.720598,162.307692 C230.685688,162.266066 230.545494,162.154214 230.438546,162.025641 C230.433338,162.154214 230.068832,162.321992 229.592392,162.589744 C226.956515,163.915881 225.190065,166.516438 224.797521,169.358974 C224.881637,169.732179 224.853598,170.095698 224.797521,170.205128 L224.797521,170.487179 L225.079572,170.205128 C225.246143,170.039772 226.479854,168.753475 227.900085,167.384615 L227.900085,167.384615 Z M235.233418,165.128205 C235.356583,164.88737 235.57991,164.724235 235.515469,164.846154 C235.663658,164.724235 235.747405,164.805802 235.797521,164.846154 C235.970732,165.132072 236.221976,165.132072 236.361623,164.846154 C236.417387,164.805802 236.417387,164.778613 234.669316,162.871795 C233.793293,161.651862 233.597881,161.461538 233.54111,161.461538 C233.123311,161.488728 233.207059,161.73343 233.823162,162.307692 L234.105213,162.871795 L233.823162,163.153846 C233.653713,163.446345 233.625797,163.500724 233.823162,163.717949 C233.960788,163.799804 233.988704,163.772615 234.387264,163.717949 L234.669316,163.435897 L234.669316,163.435897 C234.882012,163.636669 234.937844,163.772615 234.951367,163.717949 C234.937844,163.854182 234.714517,164.044506 234.387264,164.282051 C234.212031,164.452343 234.01662,164.669856 234.105213,164.846154 C234.01662,164.805802 234.156199,165.023315 234.387264,165.410256 C234.49119,165.485531 234.630769,165.431152 235.233418,165.128205 L235.233418,165.128205 Z M232.130854,161.179487 C232.428196,160.705849 232.998654,160.303061 233.54111,160.333333 C233.882865,160.303061 234.339232,160.561996 234.669316,160.897436 L234.951367,161.179487 L235.233418,160.897436 C235.907994,160.130438 235.993563,159.008387 235.515469,158.076923 C234.99526,157.310926 234.196618,156.879368 232.977008,156.666667 C232.485241,156.706745 232.342627,156.649204 232.130854,156.384615 L231.848803,156.102564 L231.566751,156.384615 C231.458416,156.620434 230.973526,157.742484 230.720598,158.076923 C230.63125,158.835764 230.716819,159.871503 231.002649,160.333333 C231.230232,160.878472 231.914783,161.540194 232.130854,161.461538 C232.142966,161.482653 232.200012,161.367571 232.130854,161.179487 L232.130854,161.179487 Z M229.874444,157.512821 C229.878301,157.377938 230.025734,156.992028 230.156495,156.666667 C230.3206,156.398321 230.438546,156.101467 230.438546,156.102564 C230.438546,155.745242 230.14368,155.626501 229.310341,155.538462 C228.639863,155.507759 228.58089,155.537445 228.464187,155.820513 C228.315511,155.804613 228.256537,155.95304 228.182136,156.102564 C228.256537,156.33895 228.227051,156.665489 228.182136,156.948718 C228.138591,157.55605 228.227051,157.674792 228.746239,157.794872 C229.760354,157.823219 229.730868,157.823219 229.874444,157.512821 Z M228.746239,156.666667 C228.746239,156.163004 228.804594,156.102564 229.310341,156.102564 L229.592392,156.102564 L229.592392,156.666667 L229.592392,156.948718 L229.310341,156.948718 L228.746239,156.948718 L228.746239,156.666667 L228.746239,156.666667 Z M230.720598,173.025641 C230.496902,172.899204 230.438546,172.782493 230.438546,172.461538 C230.438546,171.93634 230.759501,171.615385 231.2847,171.615385 C231.780721,171.615385 232.130854,171.965517 232.130854,172.461538 C232.130854,172.986737 231.809899,173.278515 231.2847,173.307692 C230.963745,173.307692 230.847034,173.249337 230.720598,173.025641 L230.720598,173.025641 Z M236.079572,173.025641 C235.484462,172.636605 235.828239,171.615385 236.643674,171.615385 C237.174699,171.615385 237.46118,171.93634 237.489828,172.461538 C237.489828,172.811671 237.46118,172.899204 237.207777,173.025641 C237.060107,173.249337 236.974163,173.307692 236.643674,173.307692 C236.429849,173.307692 236.257961,173.249337 236.079572,173.025641 L236.079572,173.025641 Z" transform="translate(-223 -153)"/>
</svg>
