<svg xmlns="http://www.w3.org/2000/svg" width="19" height="20" viewBox="0 0 19 20">
  <path d="M12.1233853,17.2383073 C11.6805735,17.2383073 11.3216036,17.5972773 11.3216036,18.0400891 C11.3216036,18.4829009 11.6805735,18.8418708 12.1233853,18.8418708 C12.5661971,18.8418708 12.925167,18.4829009 12.925167,18.0400891 C12.925167,17.5972773 12.5661971,17.2383073 12.1233853,17.2383073 L12.1233853,17.2383073 Z M17.108686,10.6636971 C16.6855234,10.0124722 15.3550111,8.32739421 13.2218263,7.38040089 C12.9515961,7.25983667 12.6786934,7.1518931 12.403118,7.05657016 C12.7694766,6.16097402 12.7479729,5.15354299 12.3437321,4.27439541 C11.9394914,3.39524782 11.188726,2.7231385 10.2703786,2.41826281 C9.71759465,2.23563474 9.2311804,2.15100223 8.82672606,2.16124722 C8.8,2.07216036 8.74253898,1.67126949 9.2454343,0.602227171 L8.22538976,0 L7.98129176,0.33674833 C7.59420935,0.873942094 7.22761693,1.3857461 6.89710468,1.8908686 C6.775753,1.86220611 6.65224747,1.84358344 6.52783964,1.83518931 C4.677951,1.72605791 4.79064588,1.73140312 4.69888641,1.73140312 C2.44454343,1.73140312 2.43830735,4.05300668 2.43830735,3.77505568 L2.33318486,5.40890869 C2.26146993,6.61158129 3.21291759,7.6454343 4.45478842,7.71848552 L4.85256125,7.74253898 C4.09619022,8.17359746 3.40243563,8.70624033 2.79064588,9.32561247 C0,12.1452116 0,15.233853 0,17.7180401 L0,19.2164811 L1.03875278,17.8890869 C1.17799429,18.4736234 1.39618271,19.0364776 1.68730512,19.5621381 C1.94476615,20.013363 2.34966592,19.9830735 2.56213808,19.8886414 C2.74966592,19.8053452 3.00757238,19.5804009 2.72917595,18.9928731 C2.37325342,18.2454207 2.13639123,17.4469126 2.02717149,16.6262806 L4.11269488,13.9612472 L3.0142539,17.2623608 C5.60801782,15.3737194 10.0244989,14.5113586 13.5376392,15.5434298 C15.0610245,15.9910913 16.5420935,15.5741648 17.3122494,14.4815145 C17.3443207,14.436971 17.3657016,14.3853007 17.3946548,14.3380846 C17.4748509,14.755508 17.5165996,15.1794061 17.5193764,15.6044543 C17.5193764,16.6423163 17.3550111,17.9621381 16.8565702,19.24098 C16.7443207,19.5287305 16.9349666,19.8868597 17.2396437,19.9420935 C17.5701559,20.0120267 17.9224944,19.8040089 18.0579065,19.4454343 C18.4855234,18.3073497 18.7082405,17.0155902 18.7082405,15.6044543 C18.7082405,13.8859688 18.1291759,12.1541203 17.108686,10.6636971 Z M5.71804009,4.30200445 L5.01870824,4.26057906 L4.95679287,5.2311804 L5.54164811,5.26592428 C5.51572447,5.55618841 5.52050222,5.8483778 5.555902,6.1376392 L4.55902004,6.077951 C4.4139836,6.07193459 4.2772865,6.00851405 4.17903495,5.90165714 C4.08078341,5.79480022 4.0290359,5.65327123 4.03518931,5.50824053 L4.14253898,3.8752784 C4.18708241,3.33318486 4.76035635,3.37327394 4.73318486,3.37104677 L6.0298441,3.4481069 C5.90589386,3.72502666 5.80169886,4.01037211 5.71804009,4.30200445 L5.71804009,4.30200445 Z M12.3291759,11.9714922 C12.1333022,12.1232746 11.8530788,12.096131 11.6899777,11.9095768 L11.2587973,11.3977728 L9.72561247,12.6004454 C9.57408646,12.719583 9.35563788,12.6983859 9.2298441,12.5523385 L8.52694878,11.722049 C8.41643507,11.5783301 8.44313912,11.3722705 8.58663697,11.2614699 L10.1265033,10.0507795 L9.49665924,9.30512249 L8.73541203,9.90423163 C8.59119465,10.0166669 8.38431874,9.99713184 8.2636971,9.8596882 C8.2636971,9.8596882 8.09799555,9.66280624 8.09443207,9.65790646 C7.98421681,9.51383793 8.01152607,9.30772283 8.15545657,9.19732739 L8.90868597,8.60534521 C8.90868597,8.60534521 8.08418708,7.62538976 8.08017817,7.61915367 C8.01108445,7.5296445 7.9804276,7.41633025 7.99496682,7.30419441 C8.00950604,7.19205858 8.06804741,7.09030952 8.15768374,7.02138085 C8.35206718,6.86778636 8.6329695,6.89469798 8.79465479,7.08240535 L12.4066815,11.3728285 C12.4758241,11.4624818 12.5065043,11.5759376 12.4919678,11.688219 C12.4774314,11.8005004 12.4188701,11.9024026 12.3291759,11.9714922 L12.3291759,11.9714922 Z M7.72561247,17.2383073 C7.28280065,17.2383073 6.92383073,17.5972773 6.92383073,18.0400891 C6.92383073,18.4829009 7.28280065,18.8418708 7.72561247,18.8418708 C8.1684243,18.8418708 8.52739421,18.4829009 8.52739421,18.0400891 C8.52739421,17.5972773 8.1684243,17.2383073 7.72561247,17.2383073 L7.72561247,17.2383073 Z"/>
</svg>
