<svg xmlns="http://www.w3.org/2000/svg" width="22" height="22" viewBox="0 0 22 22">
  <path d="M280.977028,115 C287.052161,115 291.977028,119.924868 291.977028,126 C291.977028,132.075132 287.052161,137 280.977028,137 C274.901896,137 269.977028,132.075132 269.977028,126 C269.977028,119.924868 274.901896,115 280.977028,115 Z M280.977028,117 C276.006466,117 271.977028,121.029437 271.977028,126 C271.977028,130.970563 276.006466,135 280.977028,135 C285.947591,135 289.977028,130.970563 289.977028,126 C289.977028,121.029437 285.947591,117 280.977028,117 Z M284.900801,120.811317 C285.682559,120.550731 286.426298,121.29447 286.165712,122.076228 L286.165712,122.076228 L284.045712,128.436228 C283.946177,128.734833 283.711861,128.969148 283.413256,129.068683 L283.413256,129.068683 L277.053256,131.188683 C276.271498,131.449269 275.527759,130.70553 275.788345,129.923772 L275.788345,129.923772 L277.908345,123.563772 C278.00788,123.265167 278.242196,123.030852 278.540801,122.931317 L278.540801,122.931317 Z M283.635028,123.341 L279.647028,124.67 L278.318028,128.659 L282.306028,127.329 L283.635028,123.341 Z" transform="translate(-270 -115)"/>
</svg>
