<svg xmlns="http://www.w3.org/2000/svg" width="20" height="20" viewBox="0 0 20 20">
  <path fill="#000000" d="M4.97671054,15.0242953 C4.97671054,15.0242953 9.67879659,14.3788908 11.6860356,12.3726811 C13.6932746,10.3664715 14.3376498,5.66335605 14.3376498,5.66335605 C14.3376498,5.66335605 9.6345344,6.30876059 7.62832474,8.31497025 C5.62211509,10.3211799 4.97671054,15.0242953 4.97671054,15.0242953 Z M8.64429649,9.32888329 C9.48630752,8.48687226 11.0993042,7.88778862 12.4827551,7.51516271 C12.1111585,8.89655489 11.5100162,10.5208745 10.6710932,11.3567094 C10.1121543,11.9177069 9.20323535,11.9177069 8.64429649,11.3567094 C8.08329892,10.7977705 8.08329892,9.88988086 8.64429649,9.32888329 Z M9.65718017,0.686645508 C4.32314971,0.686645508 0,5.00979522 0,10.3428198 C0,15.6768503 4.32314971,20 9.65718017,20 C14.9891989,20 19.3133545,15.6768503 19.3133545,10.3428198 C19.3133545,5.00979522 14.9891989,0.686645508 9.65718017,0.686645508 Z M9.65613055,18.6525823 C5.06717354,18.6525823 1.34636804,14.9328702 1.34636804,10.3428198 C1.34636804,5.75386282 5.06608015,2.03305732 9.65613055,2.03305732 C14.2450876,2.03305732 17.9669865,5.75276943 17.9669865,10.3428198 C17.9669865,14.9317768 14.2450876,18.6525823 9.65613055,18.6525823 Z M9.65618056,17.8924043 C5.48702185,17.8924043 2.10659604,14.5129719 2.10659604,10.3428198 C2.10659604,6.17366111 5.48602848,2.79323531 9.65618056,2.79323531 C13.8253393,2.79323531 17.2067585,6.17266775 17.2067585,10.3428198 C17.2067585,14.5119785 13.8253393,17.8924043 9.65618056,17.8924043 Z"/>
</svg>
