<svg xmlns="http://www.w3.org/2000/svg" width="20" height="20" viewBox="0 0 20 20">
  <path d="M10.0010417,0 C4.48541667,0 0,4.48645833 0,10 C0,15.5135417 4.48541667,20 10.0010417,20 C15.5145833,20 20.0010417,15.5135417 20.0010417,10 C20.0010417,4.48645833 15.5145833,0 10.0010417,0 Z M18.5302083,10 C18.5302083,11.9510417 17.8677083,13.75 16.7635417,15.1875 C16.4510417,14.94375 16.11875,14.284375 16.43125,13.6010417 C16.746875,12.9135417 16.8291667,11.321875 16.75625,10.7020833 C16.6875,10.0833333 16.365625,8.59270833 15.4916667,8.578125 C14.61875,8.565625 14.0197917,8.27708333 13.5010417,7.24166667 C12.425,5.0875 15.5208333,4.67395833 14.4447917,3.48229167 C14.14375,3.146875 12.5875,4.859375 12.359375,2.57708333 C12.3447917,2.41354167 12.5,2.16875 12.709375,1.91458333 C16.0885417,3.05 18.5302083,6.24479167 18.5302083,10 Z M8.82916667,1.55520833 C8.625,1.953125 8.08645833,2.11458333 7.759375,2.41354167 C7.046875,3.05833333 6.740625,2.96875 6.35729167,3.5875 C5.97083333,4.20625 4.725,5.096875 4.725,5.54479167 C4.725,5.99270833 5.35416667,6.51979167 5.66875,6.41770833 C5.98333333,6.31354167 6.81354167,6.31979167 7.30104167,6.490625 C7.78958333,6.66354167 11.378125,6.83645833 10.234375,9.86979167 C9.871875,10.834375 8.28333333,10.671875 7.86041667,12.26875 C7.796875,12.503125 7.57708333,13.5041667 7.56354167,13.83125 C7.5375,14.3375 7.921875,16.2458333 7.43333333,16.2458333 C6.94270833,16.2458333 5.62291667,14.5385417 5.62291667,14.2291667 C5.62291667,13.9197917 5.28125,12.8354167 5.28125,11.90625 C5.28125,10.978125 3.7,10.9927083 3.7,9.75833333 C3.7,8.64583333 4.55729167,8.09166667 4.36458333,7.55729167 C4.17604167,7.02604167 2.66979167,7.00833333 2.04166667,6.94270833 C3.13854167,4.09791667 5.71875,1.98645833 8.82916667,1.55520833 Z M7.31770833,18.09375 C7.83020833,17.8229167 7.88229167,17.4729167 8.346875,17.4552083 C8.878125,17.43125 9.31041667,17.2479167 9.909375,17.115625 C10.440625,17 11.3916667,16.4604167 12.228125,16.3916667 C12.934375,16.334375 14.3270833,16.428125 14.7020833,17.109375 C13.353125,18.00625 11.7354167,18.5291667 10,18.5291667 C9.06354167,18.5291667 8.16145833,18.3739583 7.31770833,18.09375 Z"/>
</svg>
