<svg xmlns="http://www.w3.org/2000/svg" width="21" height="24" viewBox="0 0 21 24">
  <path d="M471.528386,114 C477.051233,114 481.528386,118.477153 481.528386,124 C481.528386,127.371605 479.725984,130.676008 476.754338,133.812745 C475.735388,134.888304 474.646639,135.868178 473.557562,136.735405 C473.366673,136.88741 473.182423,137.030586 473.005898,137.164646 L473.005898,137.164646 L472.500595,137.539195 L472.083086,137.83205 C471.747186,138.055983 471.309585,138.055983 470.973685,137.83205 L470.973685,137.83205 L470.556176,137.539195 C470.236212,137.30811 469.880987,137.039414 469.499209,136.735405 C468.410133,135.868178 467.321384,134.888304 466.302433,133.812745 C463.330787,130.676008 461.528386,127.371605 461.528386,124 C461.528386,118.477153 466.005538,114 471.528386,114 Z M471.528386,116 C467.110108,116 463.528386,119.581722 463.528386,124 C463.528386,126.753396 465.100984,129.636493 467.754338,132.437255 C468.704138,133.439822 469.724764,134.358385 470.745062,135.170845 C470.923314,135.312786 471.09502,135.446221 471.259072,135.570828 L471.259072,135.570828 L471.528386,135.772 L472.049379,135.377337 L472.311709,135.170845 C473.332008,134.358385 474.352634,133.439822 475.302433,132.437255 C477.955787,129.636493 479.528386,126.753396 479.528386,124 C479.528386,119.581722 475.946664,116 471.528386,116 Z M471.528386,120 C473.737525,120 475.528386,121.790861 475.528386,124 C475.528386,126.209139 473.737525,128 471.528386,128 C469.319247,128 467.528386,126.209139 467.528386,124 C467.528386,121.790861 469.319247,120 471.528386,120 Z M471.528386,122 C470.423816,122 469.528386,122.895431 469.528386,124 C469.528386,125.104569 470.423816,126 471.528386,126 C472.632955,126 473.528386,125.104569 473.528386,124 C473.528386,122.895431 472.632955,122 471.528386,122 Z" transform="translate(-461 -114)"/>
</svg>
