<svg xmlns="http://www.w3.org/2000/svg" width="18" height="18" viewBox="0 0 18 18">
  <path d="M68.251715,1.48467401 C63.7705416,1.89879169 60.3850876,5.72803188 60.5233007,10.2261765 C60.6615137,14.7243211 64.2756789,18.3384863 68.7738235,18.4766993 C73.2719681,18.6149124 77.1012083,15.2294584 77.515326,10.748285 C77.5830192,10.0157759 76.7526956,9.54782214 76.1611281,9.98508615 C74.1271566,11.4885197 71.2993277,11.277641 69.5108434,9.48915662 C67.722359,7.70067227 67.5114803,4.87284342 69.0149138,2.83887193 C69.4521779,2.24730437 68.9842241,1.4169808 68.251715,1.48467401 Z M66.7171336,3.55728291 L66.6852862,3.6460229 C65.8505168,6.05604405 66.4209528,8.80797941 68.3064867,10.6935133 L68.475075,10.8564688 C70.3536034,12.6113867 73.0148389,13.1249311 75.3539771,12.3147138 L75.4418655,12.2820148 L75.387689,12.4308897 C74.3678817,15.0601698 71.7769159,16.864953 68.826133,16.7742852 C65.2276173,16.6637148 62.3362852,13.7723827 62.2257148,10.173867 C62.135047,7.22308409 63.9398302,4.6321183 66.5691103,3.61231098 L66.7171336,3.55728291 Z" transform="translate(-60 -1)"/>
</svg>
