<svg xmlns="http://www.w3.org/2000/svg" width="22" height="22" viewBox="0 0 22 22">
  <path d="M277.224117,160.041727 L270.833489,160.976241 L270.719759,160.99926 C269.984539,161.191095 269.715057,162.131457 270.280384,162.682085 L274.903117,167.184727 L273.812508,173.546684 L273.79948,173.656809 C273.750093,174.418195 274.563285,174.969073 275.263568,174.600801 L280.978117,171.595727 L286.692665,174.600801 L286.793369,174.647235 C287.502193,174.929575 288.277475,174.326512 288.143725,173.546684 L287.052117,167.184727 L291.67585,162.682085 L291.754434,162.59671 C292.237203,162.009954 291.903616,161.090377 291.122745,160.976241 L284.731117,160.041727 L281.874824,154.253103 C281.507989,153.509935 280.448245,153.509935 280.081409,154.253103 L277.224117,160.041727 Z M280.978117,156.953727 L283.171409,161.398351 L283.232167,161.504552 C283.387936,161.741862 283.638804,161.903602 283.923489,161.945213 L288.829117,162.661727 L285.280384,166.119369 L285.19801,166.210064 C285.020147,166.43179 284.943805,166.720808 284.992508,167.004771 L285.829117,171.886727 L281.443568,169.580654 L281.331861,169.530374 C281.066038,169.429813 280.767626,169.446573 280.512665,169.580654 L276.126117,171.886727 L276.963725,167.004771 L276.977011,166.882974 C276.990467,166.599043 276.882239,166.320393 276.67585,166.119369 L273.126117,162.661727 L278.032745,161.945213 C278.358099,161.897658 278.639284,161.693199 278.784824,161.398351 L280.978117,156.953727 Z" transform="translate(-270 -153)"/>
</svg>
