<svg xmlns="http://www.w3.org/2000/svg" width="19" height="22" viewBox="0 0 19 22">
  <path d="M333.374127,156 C333.416717,156 333.458686,156.002663 333.499876,156.00783 C333.510074,156.009224 333.520504,156.010711 333.530899,156.012361 C333.56252,156.017204 333.593433,156.023616 333.623789,156.031417 C333.633932,156.03428 333.644017,156.03705 333.654052,156.039976 C333.685066,156.048732 333.715477,156.059226 333.745185,156.071104 C333.754146,156.07497 333.763183,156.078734 333.772164,156.082631 C333.800426,156.094638 333.827788,156.108068 333.854412,156.122674 C333.864782,156.128558 333.875385,156.134613 333.885881,156.140865 C333.914033,156.157498 333.941153,156.175549 333.9673,156.194845 C334.007104,156.224207 334.045389,156.257049 334.081233,156.292893 L333.98796,156.210506 C333.991855,156.213539 333.995727,156.2166 333.999576,156.219689 L334.081233,156.292893 L340.081233,162.292893 C340.110571,162.322231 340.138094,162.353383 340.16362,162.386167 C340.169292,162.39354 340.174492,162.400418 340.179597,162.407358 C340.198577,162.432973 340.216629,162.460093 340.23335,162.4881 C340.239513,162.498741 340.245568,162.509345 340.251425,162.52005 C340.266059,162.546339 340.279488,162.5737 340.291671,162.601729 C340.295392,162.610943 340.299157,162.619981 340.302788,162.629072 C340.3149,162.658649 340.325394,162.68906 340.334425,162.720094 C340.337077,162.73011 340.339847,162.740195 340.342459,162.750326 C340.350511,162.780694 340.356923,162.811607 340.361874,162.843005 C340.369945,162.894759 340.374127,162.947164 340.374127,163 L340.366296,162.87425 C340.366677,162.877289 340.367045,162.880332 340.367399,162.883379 L340.374127,163 L340.374127,175 C340.374127,176.656854 339.030981,178 337.374127,178 L337.374127,178 L325.374127,178 C323.717272,178 322.374127,176.656854 322.374127,175 L322.374127,175 L322.374127,159 C322.374127,157.343146 323.717272,156 325.374127,156 L325.374127,156 L333.374127,156 L333.374127,156 Z M332.374127,158 L325.374127,158 C324.821842,158 324.374127,158.447715 324.374127,159 L324.374127,159 L324.374127,175 C324.374127,175.552285 324.821842,176 325.374127,176 L325.374127,176 L337.374127,176 C337.926411,176 338.374127,175.552285 338.374127,175 L338.374127,175 L338.374127,164 L333.374127,164 C332.861291,164 332.438619,163.61396 332.380854,163.116621 L332.374127,163 L332.374127,158 Z M335.374127,171 C335.926411,171 336.374127,171.447715 336.374127,172 C336.374127,172.512836 335.988086,172.935507 335.490748,172.993272 L335.374127,173 L327.374127,173 C326.821842,173 326.374127,172.552285 326.374127,172 C326.374127,171.487164 326.760167,171.064493 327.257505,171.006728 L327.374127,171 L335.374127,171 Z M335.374127,167 C335.926411,167 336.374127,167.447715 336.374127,168 C336.374127,168.512836 335.988086,168.935507 335.490748,168.993272 L335.374127,169 L327.374127,169 C326.821842,169 326.374127,168.552285 326.374127,168 C326.374127,167.487164 326.760167,167.064493 327.257505,167.006728 L327.374127,167 L335.374127,167 Z M329.374127,163 C329.926411,163 330.374127,163.447715 330.374127,164 C330.374127,164.512836 329.988086,164.935507 329.490748,164.993272 L329.374127,165 L327.374127,165 C326.821842,165 326.374127,164.552285 326.374127,164 C326.374127,163.487164 326.760167,163.064493 327.257505,163.006728 L327.374127,163 L329.374127,163 Z M334.374127,159.415 L334.374127,162 L336.959127,162 L334.374127,159.415 Z" transform="translate(-322 -156)"/>
</svg>
