<svg xmlns="http://www.w3.org/2000/svg" width="20" height="20" viewBox="0 0 20 20">
  <path d="M2.99299081,6.34225172 C2.55843094,5.97869048 1.90710479,6.04101526 1.54651255,6.47936625 L0.234614304,8.07799698 C-0.124950604,8.51738672 -0.0643382341,9.17699069 0.369194312,9.53951319 L8.47276001,16.3349922 L4.56172114,7.65730468 L2.99299081,6.34225172 Z M6.93176755,2.89880736 L5.06203003,3.75992813 C4.5493932,3.99676232 4.32029899,4.61689393 4.55350251,5.13522839 L8.91964783,14.8215387 L9.13846876,5.28688536 L8.29400489,3.41298683 C8.05771938,2.89361362 7.4454317,2.66197317 6.93176755,2.89880736 Z M14.3264767,3.11071162 C14.339832,2.5394011 13.8878075,2.06157775 13.3238043,2.04807404 L11.2691477,2.00029171 C10.7051444,1.986788 10.2325734,2.44383643 10.2192181,3.01410821 L9.97368667,13.6539877 L14.2781923,5.17054577 L14.3264767,3.11071162 Z M19.4425717,4.09752072 L17.6149546,3.14914524 C17.1125911,2.88945864 16.4890028,3.09201419 16.2311434,3.59996119 L9.66548818,16.5385865 C9.40762877,17.0465335 9.60795779,17.6770526 10.1113487,17.937778 L11.9389657,18.8861534 C12.4413293,19.1468788 13.0638902,18.9443232 13.3217496,18.4363762 L19.8874049,5.49775089 C20.1452643,4.9877264 19.9449352,4.35824607 19.4425717,4.09752072 Z M12.8758891,17.0361461 C12.6170024,17.5472093 11.9975234,17.7487261 11.4931052,17.486962 C10.9876597,17.2251979 10.7893854,16.5998726 11.0482721,16.0888093 C11.3071588,15.5777461 11.9256105,15.377268 12.431056,15.6390321 C12.9365015,15.8997575 13.1347759,16.5261216 12.8758891,17.0361461 Z"/>
</svg>
