<svg xmlns="http://www.w3.org/2000/svg" width="24" height="21" viewBox="0 0 24 21">
  <path d="M184.290609,115.939447 C182.338765,116.782246 181.049599,118.681296 180.98669,120.806395 L180.984686,121.006 L180.717542,120.982753 C177.954164,120.698088 175.422631,119.231494 173.803042,116.925289 C173.356348,116.289221 172.386545,116.383601 172.070874,117.093862 C171.940603,117.386972 171.757242,117.886721 171.576837,118.549972 C170.980449,120.742575 170.876104,123.051271 171.590978,125.248203 L171.686728,125.527634 C172.3864,127.47009 173.704859,129.126379 175.700639,130.408517 L175.897686,130.532 L175.777979,130.588002 C174.292242,131.250028 172.666391,131.566101 171.02443,131.50079 C169.97204,131.45893 169.578361,132.862667 170.499043,133.374157 C180.538619,138.9517 191.984686,132.859438 191.984686,121 L191.977918,120.74298 L191.960686,120.508 L192.079879,120.376964 C192.983314,119.332201 193.627911,118.085003 193.956288,116.736618 C194.174918,115.838879 193.16332,115.15025 192.408279,115.682837 L192.077821,115.906104 C191.520013,116.266827 190.927594,116.570311 190.309615,116.812144 L190.114686,116.883 L190.083908,116.855228 C188.5724,115.524693 186.428319,115.118077 184.510179,115.850192 L184.290609,115.939447 Z M189.090131,118.686238 C189.348253,118.983031 189.756388,119.100942 190.133019,118.98753 L190.538808,118.857369 L190.821686,118.754 C190.630371,119.005551 190.424613,119.238961 190.202513,119.457993 C189.964847,119.692376 189.859798,120.02989 189.922469,120.35775 C189.963145,120.570546 189.983975,120.786659 189.984691,121.003306 L189.981771,121.310249 C189.816626,129.963465 182.671989,134.908077 175.174233,133.088866 L174.914686,133.022 L175.102701,132.969104 C176.319415,132.601537 177.481362,132.050277 178.546316,131.327389 C179.195291,130.886865 179.107587,129.90475 178.390824,129.586188 C175.719698,128.399021 174.169851,126.709967 173.492824,124.629348 L173.392451,124.295324 C172.990685,122.840187 173.016944,121.288372 173.338061,119.771848 L173.389686,119.542 L173.483344,119.638501 C175.721672,121.866217 178.795408,123.113034 182.010607,123.029664 C182.552612,123.01561 182.984686,122.572188 182.984686,122.03 L182.984686,121.03 C182.965021,119.556472 183.859096,118.239425 185.223355,117.718715 C186.587615,117.198005 188.131857,117.584397 189.090131,118.686238 Z" transform="translate(-170 -115)"/>
</svg>
