<svg xmlns="http://www.w3.org/2000/svg" width="20" height="20" viewBox="0 0 20 20">
  <path d="M20,4.07466667 C19.2746391,4.39733333 18.6633399,4.408 18.0155053,4.08888889 C18.8513634,3.58933333 18.889681,3.23822222 19.1917662,2.29422222 C18.4093744,2.75733333 17.5423276,3.09422222 16.6200321,3.27555556 C15.8821957,2.49155556 14.8297986,2 13.6651221,2 C11.4284441,2 9.61593299,3.80977778 9.61593299,6.03911111 C9.61593299,6.35555556 9.65157726,6.664 9.72019248,6.96 C6.35537337,6.792 3.37105685,5.184 1.37408662,2.73955556 C1.02566387,3.336 0.826055962,4.03022222 0.826055962,4.77066667 C0.826055962,6.17244444 1.54161469,7.408 2.62698271,8.13244444 C1.96310818,8.11111111 1.33933345,7.92977778 0.793976118,7.62755556 C0.793085012,7.64444444 0.793085012,7.66044444 0.793085012,7.67822222 C0.793085012,9.63555556 2.18855819,11.2675556 4.04206024,11.6391111 C3.44858314,11.8 2.8230262,11.8248889 2.21261807,11.7093333 C2.72856888,13.3128889 4.22384602,14.4808889 5.99536624,14.5137778 C4.26216361,15.8684444 2.11370522,16.4328889 0,16.1857778 C1.79290679,17.3315556 3.91997861,18 6.20744965,18 C13.6553199,18 17.7276778,11.8453333 17.7276778,6.50755556 C17.7276778,6.33155556 17.7250045,6.15822222 17.7169845,5.98488889 C18.5073962,5.416 19.457316,4.88533333 20,4.07466667 Z"/>
</svg>
